Coordinates
version=1
nRows=11
nColumns=63
inDegrees=yes

Units are S.I. units (second, meters, Newtons, ...)
If the header above contains a line with 'inDegrees', this indicates whether rotational values are in degrees (yes) or radians (no).

endheader
time	pelvis_tilt	pelvis_list	pelvis_rotation	pelvis_tx	pelvis_ty	pelvis_tz	hip_flexion_r	hip_adduction_r	hip_rotation_r	knee_angle_r	knee_angle_r_beta	ankle_angle_r	subtalar_angle_r	mtp_angle_r	hip_flexion_l	hip_adduction_l	hip_rotation_l	knee_angle_l	knee_angle_l_beta	ankle_angle_l	subtalar_angle_l	mtp_angle_l	L5_S1_Flex_Ext	L5_S1_Lat_Bending	L5_S1_axial_rotation	L4_L5_Flex_Ext	L4_L5_Lat_Bending	L4_L5_axial_rotation	L3_L4_Flex_Ext	L3_L4_Lat_Bending	L3_L4_axial_rotation	L2_L3_Flex_Ext	L2_L3_Lat_Bending	L2_L3_axial_rotation	L1_L2_Flex_Ext	L1_L2_Lat_Bending	L1_L2_axial_rotation	L1_T12_Flex_Ext	L1_T12_Lat_Bending	L1_T12_axial_rotation	Abs_r3	Abs_r2	Abs_r1	Abs_t1	Abs_t2	neck_flexion	neck_bending	neck_rotation	arm_flex_r	arm_add_r	arm_rot_r	elbow_flex_r	pro_sup_r	wrist_flex_r	wrist_dev_r	arm_flex_l	arm_add_l	arm_rot_l	elbow_flex_l	pro_sup_l	wrist_flex_l	wrist_dev_l
1.559322	1.972112	-4.953312	92.949192	0.244401	1.008402	0.264008	1.627767	-1.827351	-17.576172	16.122797	0.281396	35.442662	18.690778	0.000000	0.434544	-1.218335	-9.619439	13.059094	0.227924	35.065626	11.062996	0.000000	0.291838	-0.034419	2.075653	0.541972	-0.045778	2.205381	0.479460	-0.083687	2.205381	0.333541	-0.083687	1.816196	0.271000	-0.070188	1.686468	0.166756	-0.053315	1.556740	2.084567	-0.389357	11.544158	0.000000	0.000000	18.658652	1.448552	3.686961	4.388609	-18.062740	44.201846	59.930124	88.990108	24.825372	15.127026	19.761012	-16.552545	80.923354	64.461082	49.024138	0.133031	5.653753
1.576271	2.029672	-5.029891	92.978358	0.244406	1.008330	0.263849	1.718201	-1.743375	-17.480258	16.064392	0.280377	35.533058	18.695445	0.000000	0.573994	-1.345096	-10.183984	13.158223	0.229654	35.389669	11.865873	0.000000	0.294471	-0.038334	2.048004	0.546863	-0.050984	2.176005	0.483787	-0.093205	2.176005	0.336551	-0.093205	1.792004	0.273446	-0.078170	1.664004	0.168261	-0.059379	1.536003	2.103380	-0.433641	11.390386	0.000000	0.000000	18.624631	1.232248	2.972726	4.912717	-18.034090	44.933908	59.475190	89.027550	24.707536	14.154495	19.541987	-16.363081	79.691321	64.231208	48.928693	-0.442320	4.690695
1.593220	2.094064	-5.099773	92.990229	0.244426	1.008284	0.263692	1.800595	-1.648260	-17.359570	15.990094	0.279080	35.633472	18.701787	0.000000	0.693636	-1.458679	-10.590898	13.228971	0.230889	35.643477	12.410383	0.000000	0.296600	-0.041906	2.021901	0.550816	-0.055735	2.148270	0.487284	-0.101890	2.148270	0.338984	-0.101890	1.769163	0.275423	-0.085454	1.642795	0.169477	-0.064912	1.516426	2.118584	-0.474046	11.245207	0.000000	0.000000	18.644340	0.994403	2.164489	5.430525	-17.999031	45.633472	59.016267	89.045290	24.641034	13.286984	19.358467	-16.159411	78.625742	63.999734	48.663629	-1.254241	3.574080
1.610169	2.160016	-5.147070	92.995425	0.244424	1.008289	0.263492	1.850909	-1.548825	-17.234312	15.899917	0.277506	35.744571	18.710500	0.000000	0.747671	-1.527223	-10.625822	13.207203	0.230509	35.759828	12.419846	0.000000	0.296835	-0.044370	1.989948	0.551253	-0.059012	2.114320	0.487671	-0.107881	2.114320	0.339253	-0.107881	1.741204	0.275641	-0.090479	1.616833	0.169612	-0.068729	1.492461	2.120265	-0.501923	11.067493	0.000000	0.000000	18.699621	0.747742	1.365269	5.963507	-17.976978	46.388728	58.535695	89.032441	24.538350	12.385352	19.171385	-15.974075	77.710974	63.805331	48.249480	-2.328101	2.386081
1.627119	2.216789	-5.182287	92.967328	0.244460	1.008327	0.263293	1.898597	-1.459459	-17.077329	15.825962	0.276215	35.873892	18.711860	0.000000	0.769625	-1.577832	-10.622180	13.160658	0.229697	35.825071	12.291338	0.000000	0.295227	-0.046759	1.970905	0.548266	-0.062190	2.094087	0.485028	-0.113691	2.094087	0.337415	-0.113691	1.724542	0.274148	-0.095352	1.601360	0.168693	-0.072430	1.478179	2.108777	-0.528952	10.961583	0.000000	0.000000	18.802978	0.482749	0.575698	6.395879	-17.942105	46.945638	58.064045	88.997449	24.454479	11.542128	19.081324	-15.782862	77.141149	63.623626	47.618778	-3.524981	1.179394
1.644068	2.266457	-5.214347	92.923500	0.244518	1.008376	0.263081	1.942660	-1.377453	-16.923184	15.753929	0.274958	36.022652	18.718685	0.000000	0.771923	-1.608273	-10.539061	13.086148	0.228396	35.850785	12.006864	0.000000	0.293045	-0.049164	1.967131	0.544213	-0.065388	2.090076	0.481443	-0.119538	2.090076	0.334921	-0.119538	1.721239	0.272121	-0.100256	1.598294	0.167446	-0.076155	1.475348	2.093189	-0.556155	10.940591	0.000000	0.000000	18.953701	0.196746	-0.211244	6.677190	-17.874254	47.186591	57.601024	88.940224	24.476082	10.771912	19.106063	-15.586457	76.942962	63.448758	46.787556	-4.677396	0.052708
1.661017	2.324136	-5.240338	92.888845	0.244600	1.008422	0.262892	1.976571	-1.284567	-16.791940	15.677825	0.273630	36.171783	18.724213	0.000000	0.796614	-1.683313	-10.728432	13.080908	0.228305	35.965984	12.068551	0.000000	0.288727	-0.050305	1.973379	0.536195	-0.066905	2.096715	0.474350	-0.122311	2.096715	0.329986	-0.122311	1.726706	0.268112	-0.102581	1.603370	0.164979	-0.077922	1.480034	2.062350	-0.569057	10.975341	0.000000	0.000000	19.146142	-0.104800	-0.983370	6.834473	-17.782317	47.135912	57.159918	88.873445	24.620431	10.094879	19.236975	-15.392123	77.065265	63.277672	45.759233	-5.668837	-0.913404
1.677966	2.376133	-5.266475	92.840483	0.244699	1.008447	0.262698	2.007836	-1.198524	-16.671800	15.604876	0.272356	36.318216	18.728495	0.000000	0.812971	-1.754155	-10.954986	13.069687	0.228109	36.075571	12.142756	0.000000	0.282376	-0.051397	1.994918	0.524400	-0.068357	2.119600	0.463915	-0.124966	2.119600	0.322727	-0.124966	1.745553	0.262214	-0.104808	1.620870	0.161350	-0.079613	1.496188	2.016982	-0.581408	11.095133	0.000000	0.000000	19.389210	-0.420735	-1.724253	6.874282	-17.692282	46.845010	56.785792	88.799208	24.787418	9.522970	19.469290	-15.198365	77.456700	63.115767	44.789190	-6.480899	-1.665322
1.694915	2.415460	-5.299105	92.764091	0.244845	1.008431	0.262487	2.044204	-1.126656	-16.547604	15.540891	0.271240	36.452922	18.730876	0.000000	0.820672	-1.809772	-11.197418	13.041183	0.227612	36.169793	12.204534	0.000000	0.274238	-0.053708	2.037254	0.509288	-0.071431	2.164583	0.450546	-0.130585	2.164583	0.313427	-0.130585	1.782598	0.254658	-0.109521	1.655269	0.156700	-0.083193	1.527941	1.958858	-0.607551	11.330598	0.000000	0.000000	19.685928	-0.756908	-2.441117	6.802387	-17.611450	46.331313	56.499638	88.728546	24.966611	9.064285	19.811508	-15.007787	78.070801	62.958540	44.120222	-7.016042	-2.171169
1.711864	2.438824	-5.347917	92.617089	0.245043	1.008371	0.262212	2.110966	-1.081611	-16.385346	15.520776	0.270889	36.565924	18.736714	0.000000	0.822412	-1.839559	-11.452753	12.995562	0.226815	36.235934	12.222244	0.000000	0.267732	-0.057268	2.097244	0.497206	-0.076166	2.228321	0.439857	-0.139241	2.228321	0.305991	-0.139241	1.835088	0.248616	-0.116781	1.704010	0.152982	-0.088708	1.572933	1.912385	-0.647827	11.664240	0.000000	0.000000	19.985937	-1.076391	-3.127496	6.707726	-17.557710	45.780985	56.255851	88.676589	25.248802	8.610618	20.138886	-14.843358	78.680811	62.792244	43.842141	-7.239154	-2.491865
1.728814	2.442938	-5.407701	92.441497	0.245262	1.008270	0.261873	2.184571	-1.060484	-16.208686	15.517344	0.270829	36.644189	18.741359	0.000000	0.816088	-1.845474	-11.734596	12.932560	0.225716	36.282921	12.273783	0.000000	0.260740	-0.061762	2.162458	0.484221	-0.082143	2.297612	0.428370	-0.150168	2.297612	0.298000	-0.150168	1.892151	0.242124	-0.125945	1.756997	0.148987	-0.095669	1.621844	1.862443	-0.698664	12.026944	0.000000	0.000000	20.317962	-1.369144	-3.642015	6.638956	-17.548374	45.305647	56.078831	88.640157	25.542380	8.174251	20.441914	-14.727456	79.221187	62.661867	43.868701	-7.163710	-2.562573
